<svg width="201" height="70" viewBox="0 0 201 70" fill="none" xmlns="http://www.w3.org/2000/svg">
<path d="M74.5158 28H69.0749L76.1419 7.05455H82.8817L89.9488 28H84.5079L79.5885 12.3318H79.4249L74.5158 28ZM73.7897 19.7568H85.1624V23.6023H73.7897V19.7568ZM93.2931 33.8909C92.6931 33.8909 92.1272 33.8432 91.5954 33.7477C91.0635 33.6591 90.6067 33.5398 90.2249 33.3898L91.3294 29.7591C91.8204 29.9227 92.2635 30.0182 92.659 30.0455C93.0613 30.0727 93.4056 30.008 93.6919 29.8511C93.9851 29.7011 94.2101 29.4318 94.3669 29.0432L94.5613 28.5727L88.9772 12.2909H94.2135L97.1079 23.5H97.2715L100.207 12.2909H105.474L99.5522 29.5034C99.2658 30.3625 98.8601 31.1193 98.3351 31.7739C97.8169 32.4352 97.1454 32.9534 96.3204 33.3284C95.5022 33.7034 94.4931 33.8909 93.2931 33.8909ZM114.218 28.2966C112.568 28.2966 111.15 27.9591 109.964 27.2841C108.784 26.6023 107.874 25.6545 107.233 24.4409C106.599 23.2205 106.282 21.8057 106.282 20.1966C106.282 18.5807 106.599 17.1659 107.233 15.9523C107.874 14.7318 108.784 13.7841 109.964 13.1091C111.15 12.4273 112.568 12.0864 114.218 12.0864C115.868 12.0864 117.283 12.4273 118.462 13.1091C119.649 13.7841 120.559 14.7318 121.193 15.9523C121.834 17.1659 122.154 18.5807 122.154 20.1966C122.154 21.8057 121.834 23.2205 121.193 24.4409C120.559 25.6545 119.649 26.6023 118.462 27.2841C117.283 27.9591 115.868 28.2966 114.218 28.2966ZM114.249 24.5227C114.849 24.5227 115.357 24.3386 115.773 23.9705C116.189 23.6023 116.506 23.0909 116.724 22.4364C116.949 21.7818 117.061 21.025 117.061 20.1659C117.061 19.2932 116.949 18.5295 116.724 17.875C116.506 17.2205 116.189 16.7091 115.773 16.3409C115.357 15.9727 114.849 15.7886 114.249 15.7886C113.628 15.7886 113.103 15.9727 112.674 16.3409C112.251 16.7091 111.927 17.2205 111.702 17.875C111.484 18.5295 111.375 19.2932 111.375 20.1659C111.375 21.025 111.484 21.7818 111.702 22.4364C111.927 23.0909 112.251 23.6023 112.674 23.9705C113.103 24.3386 113.628 24.5227 114.249 24.5227Z" fill="#C1C1C1"/>
<path d="M69.9851 41.2545H76.2544L81.5726 54.2227H81.8181L87.1363 41.2545H93.4056V62.2H88.476V49.3341H88.3022L83.2704 62.067H80.1204L75.0885 49.2625H74.9147V62.2H69.9851V41.2545ZM101.564 41.2545V62.2H96.5633V41.2545H101.564ZM109.176 62.4659C108.174 62.4659 107.284 62.2988 106.507 61.9648C105.736 61.6238 105.126 61.1125 104.676 60.4307C104.233 59.742 104.011 58.8795 104.011 57.8432C104.011 56.9704 104.165 56.2341 104.471 55.6341C104.778 55.0341 105.201 54.5466 105.74 54.1716C106.278 53.7966 106.899 53.5136 107.601 53.3227C108.303 53.125 109.053 52.992 109.851 52.9238C110.744 52.842 111.464 52.7568 112.009 52.6682C112.554 52.5727 112.95 52.4398 113.195 52.2693C113.448 52.092 113.574 51.8432 113.574 51.5227V51.4716C113.574 50.9466 113.393 50.5409 113.032 50.2545C112.67 49.9682 112.183 49.825 111.569 49.825C110.908 49.825 110.376 49.9682 109.974 50.2545C109.571 50.5409 109.316 50.9363 109.207 51.4409L104.594 51.2773C104.731 50.3227 105.082 49.4704 105.648 48.7204C106.22 47.9636 107.004 47.3704 108 46.9409C109.002 46.5045 110.206 46.2863 111.61 46.2863C112.612 46.2863 113.536 46.4057 114.382 46.6443C115.227 46.8761 115.964 47.217 116.591 47.667C117.218 48.1102 117.702 48.6557 118.043 49.3034C118.391 49.9511 118.565 50.6909 118.565 51.5227V62.2H113.86V60.0113H113.737C113.458 60.5432 113.1 60.9932 112.664 61.3613C112.234 61.7295 111.726 62.0057 111.14 62.1898C110.56 62.3738 109.906 62.4659 109.176 62.4659ZM110.72 59.1932C111.259 59.1932 111.743 59.0841 112.173 58.8659C112.609 58.6477 112.957 58.3477 113.216 57.9659C113.475 57.5773 113.604 57.1273 113.604 56.6159V55.1227C113.461 55.1977 113.287 55.2659 113.083 55.3273C112.885 55.3886 112.667 55.4466 112.428 55.5011C112.19 55.5557 111.944 55.6034 111.692 55.6443C111.44 55.6852 111.198 55.7227 110.966 55.7568C110.495 55.8318 110.093 55.9477 109.759 56.1045C109.432 56.2613 109.179 56.4659 109.002 56.7182C108.832 56.9636 108.746 57.2568 108.746 57.5977C108.746 58.1159 108.931 58.5113 109.299 58.7841C109.674 59.0568 110.148 59.1932 110.72 59.1932ZM121.623 62.2V46.4909H126.378V49.375H126.552C126.879 48.4204 127.432 47.667 128.209 47.1148C128.986 46.5625 129.914 46.2863 130.991 46.2863C132.082 46.2863 133.016 46.5659 133.793 47.125C134.57 47.6841 135.065 48.4341 135.276 49.375H135.44C135.733 48.4409 136.306 47.6943 137.158 47.1352C138.01 46.5693 139.016 46.2863 140.175 46.2863C141.661 46.2863 142.868 46.7636 143.795 47.7182C144.723 48.6659 145.186 49.9682 145.186 51.625V62.2H140.185V52.7704C140.185 51.9863 139.984 51.3898 139.582 50.9807C139.179 50.5648 138.658 50.3568 138.017 50.3568C137.328 50.3568 136.786 50.5818 136.391 51.0318C136.002 51.475 135.808 52.0716 135.808 52.8216V62.2H131.001V52.7193C131.001 51.9898 130.803 51.4136 130.408 50.9909C130.012 50.5682 129.491 50.3568 128.843 50.3568C128.407 50.3568 128.021 50.4625 127.687 50.6738C127.353 50.8784 127.091 51.1716 126.9 51.5534C126.716 51.9352 126.624 52.3852 126.624 52.9034V62.2H121.623ZM148.285 68.0909V46.4909H153.235V49.1807H153.389C153.593 48.7034 153.883 48.2432 154.258 47.8C154.64 47.3568 155.124 46.9954 155.71 46.7159C156.303 46.4295 157.012 46.2863 157.837 46.2863C158.928 46.2863 159.948 46.5727 160.895 47.1454C161.85 47.7182 162.62 48.6011 163.207 49.7943C163.793 50.9875 164.086 52.5079 164.086 54.3557C164.086 56.1352 163.803 57.625 163.237 58.825C162.678 60.025 161.921 60.925 160.967 61.525C160.019 62.125 158.966 62.425 157.807 62.425C157.016 62.425 156.331 62.2954 155.751 62.0363C155.171 61.7773 154.684 61.4363 154.289 61.0136C153.9 60.5909 153.6 60.1375 153.389 59.6534H153.286V68.0909H148.285ZM153.184 54.3454C153.184 55.1909 153.296 55.9273 153.521 56.5545C153.753 57.1818 154.084 57.6693 154.514 58.017C154.95 58.3579 155.471 58.5284 156.078 58.5284C156.692 58.5284 157.214 58.3579 157.643 58.017C158.073 57.6693 158.396 57.1818 158.615 56.5545C158.84 55.9273 158.952 55.1909 158.952 54.3454C158.952 53.5 158.84 52.767 158.615 52.1466C158.396 51.5261 158.073 51.0454 157.643 50.7045C157.22 50.3636 156.699 50.1932 156.078 50.1932C155.465 50.1932 154.943 50.3602 154.514 50.6943C154.084 51.0284 153.753 51.5057 153.521 52.1261C153.296 52.7466 153.184 53.4863 153.184 54.3454ZM171.135 62.4659C170.133 62.4659 169.243 62.2988 168.466 61.9648C167.696 61.6238 167.085 61.1125 166.635 60.4307C166.192 59.742 165.971 58.8795 165.971 57.8432C165.971 56.9704 166.124 56.2341 166.431 55.6341C166.738 55.0341 167.16 54.5466 167.699 54.1716C168.238 53.7966 168.858 53.5136 169.56 53.3227C170.263 53.125 171.013 52.992 171.81 52.9238C172.704 52.842 173.423 52.7568 173.968 52.6682C174.514 52.5727 174.909 52.4398 175.155 52.2693C175.407 52.092 175.533 51.8432 175.533 51.5227V51.4716C175.533 50.9466 175.352 50.5409 174.991 50.2545C174.63 49.9682 174.142 49.825 173.529 49.825C172.867 49.825 172.335 49.9682 171.933 50.2545C171.531 50.5409 171.275 50.9363 171.166 51.4409L166.554 51.2773C166.69 50.3227 167.041 49.4704 167.607 48.7204C168.18 47.9636 168.964 47.3704 169.959 46.9409C170.962 46.5045 172.165 46.2863 173.57 46.2863C174.572 46.2863 175.496 46.4057 176.341 46.6443C177.187 46.8761 177.923 47.217 178.55 47.667C179.177 48.1102 179.662 48.6557 180.002 49.3034C180.35 49.9511 180.524 50.6909 180.524 51.5227V62.2H175.82V60.0113H175.697C175.417 60.5432 175.059 60.9932 174.623 61.3613C174.193 61.7295 173.685 62.0057 173.099 62.1898C172.52 62.3738 171.865 62.4659 171.135 62.4659ZM172.68 59.1932C173.218 59.1932 173.702 59.0841 174.132 58.8659C174.568 58.6477 174.916 58.3477 175.175 57.9659C175.434 57.5773 175.564 57.1273 175.564 56.6159V55.1227C175.421 55.1977 175.247 55.2659 175.042 55.3273C174.845 55.3886 174.626 55.4466 174.388 55.5011C174.149 55.5557 173.904 55.6034 173.651 55.6443C173.399 55.6852 173.157 55.7227 172.925 55.7568C172.455 55.8318 172.052 55.9477 171.718 56.1045C171.391 56.2613 171.139 56.4659 170.962 56.7182C170.791 56.9636 170.706 57.2568 170.706 57.5977C170.706 58.1159 170.89 58.5113 171.258 58.7841C171.633 59.0568 172.107 59.1932 172.68 59.1932ZM188.583 53.2409V62.2H183.582V41.2545H188.42V49.375H188.593C188.948 48.4068 189.527 47.65 190.332 47.1045C191.143 46.5591 192.135 46.2863 193.308 46.2863C194.413 46.2863 195.374 46.5318 196.192 47.0227C197.01 47.5068 197.644 48.192 198.094 49.0784C198.551 49.9648 198.776 51.0011 198.769 52.1875V62.2H193.768V53.1693C193.775 52.2966 193.557 51.6148 193.114 51.1238C192.671 50.6329 192.047 50.3875 191.242 50.3875C190.717 50.3875 190.254 50.5034 189.851 50.7352C189.456 50.9602 189.146 51.2841 188.921 51.7068C188.702 52.1295 188.59 52.6409 188.583 53.2409Z" fill="#072C60"/>
<circle cx="30.6002" cy="34.2" r="27.9" fill="#B0F538"/>
<path d="M20.0813 49.5C16.8088 49.5 14.3226 48.2887 12.6226 45.8662C10.9226 43.4437 10.1151 40.7237 10.2001 37.7062L9.0526 35.985C8.5851 35.2625 7.80947 33.6262 6.72572 31.0762C5.64197 28.5262 5.1001 25.3175 5.1001 21.45C5.1001 17.0725 6.18385 13.4281 8.35135 10.5169C10.5188 7.60562 13.2601 6.14999 16.5751 6.14999C20.1876 6.14999 23.0032 7.75437 25.022 10.9631C27.0407 14.1719 28.0501 17.6675 28.0501 21.45C28.0501 23.915 27.7101 26.1887 27.0301 28.2712C26.3501 30.3537 25.7551 32.0325 25.2451 33.3075L25.7551 34.1362C26.0951 34.7312 26.5626 35.6769 27.1576 36.9731C27.7526 38.2694 28.0501 39.6187 28.0501 41.0212C28.0501 43.4437 27.2957 45.4625 25.787 47.0775C24.2782 48.6925 22.3763 49.5 20.0813 49.5ZM13.3876 33.18L20.4001 31.7775C20.9526 30.4175 21.5157 28.8662 22.0895 27.1237C22.6632 25.3812 22.9501 23.49 22.9501 21.45C22.9501 18.9 22.3657 16.5625 21.197 14.4375C20.0282 12.3125 18.4876 11.25 16.5751 11.25C14.6626 11.25 13.122 12.3125 11.9532 14.4375C10.7845 16.5625 10.2001 18.9 10.2001 21.45C10.2001 24.1275 10.572 26.4969 11.3157 28.5581C12.0595 30.6194 12.7501 32.16 13.3876 33.18ZM20.0813 44.4C20.8888 44.4 21.5688 44.1025 22.1213 43.5075C22.6738 42.9125 22.9501 42.0837 22.9501 41.0212C22.9501 40.2987 22.7801 39.555 22.4401 38.79C22.1001 38.025 21.7601 37.345 21.4201 36.75L15.3001 38.025C15.3001 39.725 15.672 41.2125 16.4157 42.4875C17.1595 43.7625 18.3813 44.4 20.0813 44.4ZM41.1188 62.25C38.8238 62.25 36.922 61.4425 35.4132 59.8275C33.9045 58.2125 33.1501 56.1937 33.1501 53.7712C33.1501 52.3687 33.4476 51.0194 34.0426 49.7231C34.6376 48.4269 35.1051 47.4812 35.4451 46.8862L35.9551 46.0575C35.4451 44.7825 34.8501 43.1037 34.1701 41.0212C33.4901 38.9387 33.1501 36.665 33.1501 34.2C33.1501 30.4175 34.1595 26.9219 36.1782 23.7131C38.197 20.5044 41.0126 18.9 44.6251 18.9C47.9401 18.9 50.6813 20.3556 52.8488 23.2669C55.0163 26.1781 56.1001 29.8225 56.1001 34.2C56.1001 38.0675 55.5582 41.2656 54.4745 43.7944C53.3907 46.3231 52.6151 47.9487 52.1476 48.6712L51.0001 50.4562C51.0426 53.4737 50.2245 56.1937 48.5457 58.6162C46.867 61.0387 44.3913 62.25 41.1188 62.25ZM47.8126 45.93C48.4501 44.91 49.1407 43.38 49.8845 41.34C50.6282 39.3 51.0001 36.92 51.0001 34.2C51.0001 31.65 50.4157 29.3125 49.247 27.1875C48.0782 25.0625 46.5376 24 44.6251 24C42.7126 24 41.172 25.0625 40.0032 27.1875C38.8345 29.3125 38.2501 31.65 38.2501 34.2C38.2501 36.24 38.537 38.1206 39.1107 39.8419C39.6845 41.5631 40.2476 43.125 40.8001 44.5275L47.8126 45.93ZM41.1188 57.15C42.8188 57.15 44.0407 56.5125 44.7845 55.2375C45.5282 53.9625 45.9001 52.475 45.9001 50.775L39.7801 49.5C39.4401 50.095 39.1001 50.775 38.7601 51.54C38.4201 52.305 38.2501 53.0487 38.2501 53.7712C38.2501 54.6213 38.5157 55.3969 39.047 56.0981C39.5782 56.7994 40.2688 57.15 41.1188 57.15Z" fill="#072C60"/>
</svg>
